<svg xmlns="http://www.w3.org/2000/svg" viewBox="0 0 32 32" width="32" height="32">
  <defs>
    <linearGradient id="bg" x1="0%" y1="0%" x2="100%" y2="100%">
      <stop offset="0%" style="stop-color:#161920"/>
      <stop offset="100%" style="stop-color:#0c0e12"/>
    </linearGradient>
    <linearGradient id="accent" x1="0%" y1="0%" x2="100%" y2="100%">
      <stop offset="0%" style="stop-color:#e8ff4d"/>
      <stop offset="100%" style="stop-color:#4dffd4"/>
    </linearGradient>
  </defs>

  <!-- Background rounded square -->
  <rect width="32" height="32" rx="7" fill="url(#bg)"/>

  <!-- Subtle border -->
  <rect width="32" height="32" rx="7" fill="none" stroke="rgba(255,255,255,0.08)" stroke-width="1"/>

  <!-- D glyph - left side -->
  <path d="M5 8 L5 24 L10 24 Q17 24 17 16 Q17 8 10 8 Z
            M8 11 L10 11 Q14 11 14 16 Q14 21 10 21 L8 21 Z"
        fill="url(#accent)"/>

  <!-- G glyph - right side -->
  <path d="M27 12.5 Q24 8 19.5 8 Q15 8 15 16 Q15 24 19.5 24 Q23 24 25 21.5 L25 15.5 L20.5 15.5 L20.5 18 L22.5 18 L22.5 20 Q21.5 21.5 19.5 21.5 Q18 21.5 18 16 Q18 10.5 19.5 10.5 Q22 10.5 24 13 Z"
        fill="url(#accent)"/>
</svg>
